HIERARCHY
ROOT Hips
{
	OFFSET 0.00000 0.00000 0.00000
	CHANNELS 6 Xposition Yposition Zposition Yrotation Zrotation Xrotation 
	JOINT Lumbar
	{
		OFFSET 0 0 0
		CHANNELS 3 Zrotation Xrotation Yrotation
		JOINT Neck
		{
			OFFSET 0.00 0.2701 0.00
			CHANNELS 3 Zrotation Xrotation Yrotation
			End Site
			{
				OFFSET 0.00 0.1379 0.00
			}
		}
		JOINT RightShoulder
		{
			OFFSET 0.0119 0.2289 0.1181
			CHANNELS 3 Zrotation Xrotation Yrotation
			JOINT RightElbow
			{
				OFFSET 0.00 -0.1475 0.00
				CHANNELS 2 Zrotation Yrotation
				JOINT RightWrist
				{
					OFFSET 0.00 -0.1605 0.00
					CHANNELS 2 Zrotation Xrotation
					End Site
					{
						OFFSET 0.0040 -0.1068 0.0006
					}
				}
			}
		}
		JOINT LeftShoulder
		{
			OFFSET 0.0119 0.2289 -0.1181
			CHANNELS 3 Zrotation Xrotation Yrotation
			JOINT LeftElbow
			{
				OFFSET 0.00 -0.1475 0.00
				CHANNELS 2 Zrotation Yrotation
				JOINT LeftWrist
				{
					OFFSET 0.00 -0.1605 0.00
					CHANNELS 2 Zrotation Xrotation
					End Site
					{
						OFFSET 0.0040 -0.1068 -0.0006
					}
				}
			}
		}
	}
	JOINT RightHip
	{
		OFFSET 0.0316 -0.0424 0.0458
		CHANNELS 3 Zrotation Xrotation Yrotation
		JOINT RightKnee
		{
			OFFSET 0.00 -0.2438 0.00
			CHANNELS 1 Zrotation
			JOINT RightAnkle
			{
				OFFSET 0.00 -0.2449 0.00
				CHANNELS 3 Zrotation Xrotation Yrotation
				End Site
				{
					OFFSET 0.1237 -0.0542 0.0051
				}
			}
		}
	}
	JOINT LeftHip
	{
		OFFSET 0.0316 -0.0424 -0.0458
		CHANNELS 3 Zrotation Xrotation Yrotation
		JOINT LeftKnee
		{
			OFFSET 0.00 -0.2438 0.00
			CHANNELS 1 Zrotation
			JOINT LeftAnkle
			{
				OFFSET 0.00 -0.2449 0.00
				CHANNELS 3 Zrotation Xrotation Yrotation
				End Site
				{
					OFFSET 0.1237 -0.0542 -0.0051
				}
			}
		}
	}
}
MOTION
Frames: 28
Frame Time: 0.02
0.00028 -0.00017 -4e-05 -166.71915 -41.28335 -1.51375 48.44819 2.76545 -3.72723 2.10851 -0.78967 -0.12506 -19.03427 -6.52571 -9.31626 35.42959 119.88154 12.27386 5.48358 -28.76979 12.88322 -4.88037 49.65342 -100.79438 10.2831 -1.55537 46.71885 -1.29877 -0.19986 -18.88514 -6.72522 -2.025 -1.62394 49.0362 4.60882 3.44311 -24.57744 -6.76856 2.11928 1.74737
0.00012 -0.00018 -7e-05 -166.69634 -41.3036 -1.50172 48.44128 2.7613 -3.70295 2.26718 -0.80102 -0.1253 -18.51063 -6.85301 -8.88551 35.56868 119.80254 12.24627 5.47539 -27.88858 12.919 -4.89819 49.72506 -100.59221 10.13772 -1.55529 46.72236 -1.32698 -0.3752 -18.88234 -6.72759 -1.9954 -1.61268 49.0453 4.57451 3.28112 -24.57437 -6.7641 2.14239 1.75781
-4e-05 -0.00019 -0.00011 -166.67352 -41.32383 -1.48971 48.43438 2.75717 -3.67878 2.42549 -0.81236 -0.12554 -17.98834 -7.18006 -8.45424 35.70742 119.71668 12.21685 5.46609 -27.00947 12.95461 -4.9159 49.79653 -100.39021 9.99254 -1.55518 46.72586 -1.35508 -0.54985 -18.87954 -6.72995 -1.96592 -1.60147 49.0544 4.5403 3.11961 -24.57131 -6.75966 2.16543 1.76821
-0.00021 -0.00019 -0.00015 -166.65077 -41.34402 -1.47771 48.42749 2.75303 -3.65458 2.5837 -0.82369 -0.12577 -17.46624 -7.50649 -8.02446 35.8461 119.63654 12.18898 5.4577 -26.13084 12.9902 -4.93353 49.86797 -100.18871 9.84761 -1.55513 46.72935 -1.38321 -0.72462 -18.87675 -6.73232 -1.93642 -1.59025 49.06348 4.5061 2.95811 -24.56824 -6.75521 2.18847 1.77862
-0.00037 -0.0002 -0.00018 -166.62807 -41.36423 -1.46569 48.42059 2.74889 -3.63026 2.74223 -0.83503 -0.12601 -16.94298 -7.83285 -7.59605 35.98508 119.56658 12.16381 5.45094 -25.25044 13.02617 -4.9516 49.93954 -99.98688 9.70246 -1.55505 46.73284 -1.41146 -0.90016 -18.87395 -6.73471 -1.90681 -1.57897 49.07255 4.47179 2.79615 -24.56517 -6.75075 2.21158 1.78906
-0.00054 -0.00021 -0.00022 -166.60501 -41.3845 -1.45372 48.41371 2.74478 -3.6064 2.90006 -0.84636 -0.12625 -16.42279 -8.16127 -7.15888 36.12332 119.4477 12.12558 5.43639 -24.37414 13.06112 -4.96874 50.0108 -99.78436 9.55717 -1.55482 46.73636 -1.43924 -1.07293 -18.87117 -6.737 -1.87761 -1.5679 49.08172 4.4378 2.63559 -24.56213 -6.74633 2.23449 1.79939
-0.0007 -0.00021 -0.00026 -166.58267 -41.40462 -1.44166 48.40678 2.7406 -3.58165 3.05914 -0.85769 -0.12649 -15.8968 -8.48531 -6.73938 36.26291 119.42556 12.11318 5.43723 -23.49036 13.09761 -4.9869 50.08264 -99.5843 9.41261 -1.55513 46.73982 -1.46794 -1.25104 -18.86834 -6.73948 -1.8476 -1.55643 49.09069 4.4032 2.4724 -24.55903 -6.74185 2.25776 1.80992
-0.00086 -0.00022 -0.00029 -166.55971 -41.42488 -1.42968 48.39992 2.73649 -3.55772 3.217 -0.86903 -0.12673 -15.37651 -8.81315 -6.30439 36.40125 119.31755 12.07788 5.42441 -22.61385 13.13352 -5.0056 50.15387 -99.38044 9.26686 -1.5545 46.74332 -1.4958 -1.42429 -18.86556 -6.7418 -1.81834 -1.54532 49.09982 4.36916 2.3116 -24.55597 -6.73741 2.28071 1.82027
-0.00103 -0.00023 -0.00033 -166.53581 -41.44532 -1.41778 48.39302 2.73244 -3.53476 3.37374 -0.88036 -0.12698 -14.86154 -9.14686 -5.84679 36.53813 119.09001 12.0106 5.3926 -21.74424 13.1654 -5.01908 50.22469 -99.17783 9.1216 -1.55447 46.74693 -1.52261 -1.59141 -18.86283 -6.7439 -1.78999 -1.53466 49.10924 4.33581 2.15381 -24.553 -6.73304 2.30325 1.83042
-0.00119 -0.00024 -0.00037 -166.51675 -41.46475 -1.40537 48.38601 2.72797 -3.50613 3.53807 -0.89169 -0.12717 -14.31099 -9.45051 -5.50819 36.68361 119.50627 12.11529 5.46312 -20.82892 13.21047 -5.04495 50.29887 -98.98572 8.97935 -1.55625 46.7501 -1.55539 -1.79321 -18.85981 -6.74717 -1.75639 -1.52145 49.1173 4.29851 1.97894 -24.54964 -6.72834 2.3281 1.84175
-0.00135 -0.00024 -0.0004 -166.48789 -41.4863 -1.39408 48.37945 2.72444 -3.48954 3.68562 -0.90307 -0.12748 -13.83874 -9.81512 -4.92584 36.81083 118.59308 11.86504 5.3223 -20.01403 13.23411 -5.05596 50.36532 -98.76024 8.82706 -1.55082 46.75407 -1.57562 -1.92223 -18.8574 -6.74801 -1.73386 -1.51359 49.128 4.26955 1.84 -24.54705 -6.72432 2.34808 1.8506
-0.00151 -0.00026 -0.00039 -166.42847 -41.5138 -1.38562 48.37231 2.72307 -3.50576 3.7926 -0.91425 -0.12811 -13.55787 -10.36947 -3.60777 36.88792 113.75475 10.56535 4.55767 -19.44699 13.1435 -4.92697 50.41556 -98.54331 8.68065 -1.55553 46.76126 -1.56041 -1.84491 -18.85681 -6.74186 -1.74241 -1.52102 49.14784 4.26383 1.80227 -24.5469 -6.72218 2.35436 1.85235
-0.00167 -0.00027 -0.00038 -166.35993 -41.54337 -1.37835 48.36598 2.72271 -3.53419 3.88151 -0.92555 -0.12886 -13.36077 -10.98102 -2.05774 36.94633 107.6318 8.92295 3.58879 -18.98783 13.03996 -4.79711 50.45691 -98.28074 8.52049 -1.54899 46.76897 -1.53261 -1.69479 -18.85682 -6.73331 -1.76208 -1.53379 49.16989 4.26655 1.80079 -24.54745 -6.72073 2.35573 1.85162
-0.00184 -0.00029 -0.00037 -166.2979 -41.57198 -1.3707 48.36043 2.72214 -3.55708 3.97537 -0.93702 -0.12955 -13.13964 -11.55156 -0.65697 37.01377 102.27872 7.48695 2.74225 -18.49499 12.98074 -4.73796 50.49935 -97.96544 8.34149 -1.52612 46.7759 -1.51145 -1.58353 -18.85647 -6.72607 -1.77606 -1.54364 49.18987 4.26496 1.7802 -24.54746 -6.71894 2.35963 1.85225
-0.00197 -0.0003 -0.00036 -166.2257 -41.60089 -1.36232 48.3499 2.72054 -3.57965 4.08376 -0.94757 -0.13026 -12.8561 -12.18504 0.9311 37.08034 96.14133 5.83749 1.77139 -17.92977 12.76623 -4.39979 50.55514 -97.93373 8.25785 -1.58746 46.78557 -1.4871 -1.45166 -18.8565 -6.71796 -1.79227 -1.5553 49.21483 4.26479 1.76813 -24.54842 -6.71722 2.36253 1.85207
-0.00217 -0.00032 -0.00035 -166.17274 -41.62938 -1.35581 48.35009 2.7213 -3.60616 4.15658 -0.96005 -0.13096 -12.72655 -12.70172 2.18183 37.14249 91.32827 4.55007 1.01015 -17.55065 12.86326 -4.62022 50.5799 -97.33375 7.98553 -1.47861 46.78913 -1.46552 -1.34052 -18.85589 -6.71099 -1.80707 -1.56479 49.22935 4.26445 1.75029 -24.54756 -6.71555 2.36599 1.85278
-0.00254 -0.00033 -0.00037 -166.17338 -41.65844 -1.35347 48.37844 2.72843 -3.63704 4.14443 -0.9778 -0.13154 -12.96724 -12.87653 2.46526 37.21219 90.53136 4.35893 0.88556 -17.57579 13.90191 -6.58006 50.53059 -94.88497 7.0803 -0.8336 46.77998 -1.46256 -1.34887 -18.85329 -6.70885 -1.80987 -1.56405 49.21931 4.25436 1.67611 -24.54153 -6.71362 2.37576 1.85853
-0.00298 -0.00034 -0.00039 -166.19401 -41.68651 -1.35311 48.41775 2.73788 -3.67201 4.09535 -0.99745 -0.13212 -13.36716 -12.93377 2.39945 37.27513 91.10218 4.54145 0.97701 -17.80033 15.24143 -9.06878 50.44865 -91.91595 6.00565 -0.02955 46.76376 -1.46154 -1.37366 -18.85005 -6.70777 -1.81169 -1.5614 49.19767 4.2448 1.59907 -24.53366 -6.71172 2.38583 1.865
-0.0034 -0.00035 -0.0004 -166.20667 -41.71365 -1.35227 48.45292 2.74622 -3.70757 4.05753 -1.01632 -0.13272 -13.71581 -13.04709 2.47684 37.33135 91.01961 4.54505 0.96522 -17.98771 16.39002 -11.18198 50.37542 -89.38116 5.0861 0.65514 46.74813 -1.45418 -1.36014 -18.84715 -6.70549 -1.81772 -1.56168 49.17833 4.24019 1.54614 -24.52663 -6.71 2.39318 1.86969
-0.00378 -0.00036 -0.00043 -166.21437 -41.747 -1.34963 48.48472 2.75488 -3.73367 4.04283 -1.03507 -0.13323 -13.97526 -13.14724 2.61857 37.42877 91.03235 4.57626 0.97005 -17.95179 17.76085 -13.8517 50.32749 -86.02703 3.84263 1.53474 46.74405 -1.46859 -1.46879 -18.84406 -6.70608 -1.80899 -1.55383 49.17209 4.21542 1.40508 -24.51959 -6.70762 2.41039 1.87993
-0.00426 -0.00038 -0.00044 -166.2372 -41.76677 -1.35126 48.52595 2.76336 -3.77972 3.97089 -1.05424 -0.13393 -14.46106 -13.25114 2.55193 37.43837 91.18075 4.64171 0.99123 -18.42865 18.74807 -15.50555 50.21949 -84.23477 3.22587 2.05133 46.71365 -1.43935 -1.33472 -18.84122 -6.70106 -1.82971 -1.56191 49.13519 4.23084 1.43777 -24.51212 -6.70644 2.40829 1.87944
-0.00498 -0.00042 -0.00039 -166.29723 -41.75251 -1.3636 48.59173 2.77101 -3.88486 3.75496 -1.07655 -0.13512 -15.49923 -13.35082 1.89212 37.21304 91.44718 4.72769 1.03337 -20.25528 18.53818 -14.07542 49.95131 -87.07593 4.45242 1.4798 46.61693 -1.27982 -0.46724 -18.8389 -6.67957 -1.93987 -1.61863 49.02127 4.373 2.02701 -24.50397 -6.70995 2.34299 1.84361
-0.00581 -0.00047 -0.00033 -166.37163 -41.72391 -1.38026 48.66624 2.77835 -4.00898 3.48207 -1.09886 -0.13653 -16.76498 -13.46579 1.05091 36.8989 91.80035 4.83587 1.08158 -22.59183 17.94492 -11.63436 49.62413 -91.47488 6.30423 0.54563 46.49298 -1.07805 0.63385 -18.83691 -6.65252 -2.07825 -1.69067 48.87591 4.55286 2.77822 -24.49544 -6.71442 2.25991 1.79788
-0.0066 -0.00052 -0.00027 -166.43948 -41.69993 -1.39537 48.73618 2.78567 -4.121 3.23171 -1.11941 -0.13781 -17.94897 -13.60235 0.36163 36.6212 92.06215 4.92142 1.10742 -24.70831 17.56809 -9.75185 49.32568 -95.02917 7.82062 -0.19125 46.3786 -0.90182 1.5886 -18.83496 -6.62848 -2.1984 -1.75286 48.74186 4.70458 3.40343 -24.48704 -6.71751 2.19162 1.76046
-0.00735 -0.00056 -0.00022 -166.5087 -41.68441 -1.40889 48.80971 2.79375 -4.24765 2.99323 -1.14699 -0.13909 -19.04952 -13.61578 -0.62542 36.35835 92.56758 5.0638 1.21765 -26.79066 17.01946 -7.462 49.01858 -99.12656 9.53952 -1.05768 46.27628 -0.69906 2.71171 -18.83214 -6.60244 -2.34108 -1.827 48.62026 4.90156 4.24404 -24.47871 -6.72451 2.09572 1.70743
-0.00821 -0.00062 -0.00015 -166.57746 -41.64729 -1.42659 48.87684 2.80014 -4.34855 2.71821 -1.16052 -0.14056 -20.37281 -13.88904 -1.0404 36.0454 92.59685 5.09946 1.15806 -29.05239 16.73887 -5.78277 48.71517 -102.48943 10.99736 -1.74501 46.1419 -0.54126 3.54076 -18.83129 -6.57922 -2.4439 -1.88012 48.46506 5.01476 4.68169 -24.47021 -6.7237 2.05221 1.68399
-0.00936 -0.00072 -4e-05 -166.64753 -41.55904 -1.45581 48.93141 2.80179 -4.3716 2.34632 -1.13003 -0.14123 -22.27626 -14.89447 0.25567 35.60053 91.03782 4.73641 0.56345 -31.76654 17.24725 -5.95308 48.44359 -103.26425 11.4934 -1.82649 45.93069 -0.5199 3.49323 -18.83515 -6.56547 -2.42679 -1.86992 48.22812 4.87407 3.90458 -24.4611 -6.70019 2.16534 1.74947
-0.01061 -0.00084 9e-05 -166.71511 -41.44867 -1.48882 48.97781 2.80177 -4.36857 1.94206 -1.08644 -0.14228 -24.38833 -16.15973 2.12147 35.11155 89.03364 4.28076 -0.19222 -34.62412 18.04594 -6.78345 48.17703 -103.27506 11.72037 -1.71927 45.68741 -0.54479 3.14383 -18.84108 -6.5547 -2.36928 -1.8384 47.95813 4.65016 2.72772 -24.45189 -6.66896 2.33036 1.84419
